PathFileType	4	(X/Y/Z)	RUN4																																																													
DataRate	CameraRate	NumFrames	NumMarkers	Units	OrigDataRate	OrigDataStartFrame	OrigNumFrames																																																									
72	72	17	21	mm	72	214	854																																																									
Frame#	Time	Hand_Start			Hand_Thumb1			Hand_Thumb2			Hand_Thumb3			Hand_Index1			Hand_Index2			Hand_Index3			Hand_Middle1			Hand_Middle2			Hand_Middle3			Hand_Ring1			Hand_Ring2			Hand_Ring3			Hand_Pinky1			Hand_Pinky2			Hand_Pinky3			Hand_ThumbTip			Hand_IndexTip			Hand_MiddleTip			Hand_RingTip			Hand_PinkyTip		
		X1	Y1	Z1	X2	Y2	Z2	X3	Y3	Z3	X4	Y4	Z4	X5	Y5	Z5	X6	Y6	Z6	X7	Y7	Z7	X8	Y8	Z8	X9	Y9	Z9	X10	Y10	Z10	X11	Y11	Z11	X12	Y12	Z12	X13	Y13	Z13	X14	Y14	Z14	X15	Y15	Z15	X16	Y16	Z16	X17	Y17	Z17	X18	Y18	Z18	X19	Y19	Z19	X20	Y20	Z20	X21	Y21	Z21
																																																																
214	2.958333333	133.1651	-66.82459	-670.6183	97.53698	-59.23572	-707.0082	74.86475	-68.11932	-729.8098	53.79941	-74.4876	-756.6036	105.6278	-32.69926	-762.3726	80.08312	-48.4893	-787.1217	61.70572	-62.77904	-796.0603	123.1791	-46.92897	-766.2492	89.21044	-69.7014	-782.6042	86.80649	-76.52584	-755.2791	132.4608	-65.96062	-763.6042	99.73173	-85.5867	-775.6265	94.43462	-89.08388	-749.1106	138.443	-86.52994	-757.0049	112.5483	-97.27529	-771.4112	105.71	-96.46031	-751.7416	37.56811	-80.90964	-774.8654	46.47322	-75.78745	-807.3056	101.9671	-63.81831	-738.9615	110.8962	-76.50444	-735.0909	118.4231	-85.12929	-736.9922
215	2.972222222	132.4246	-70.6512	-671.8047	96.99069	-63.46455	-708.464	74.51144	-72.52607	-731.3863	53.72041	-79.15226	-758.3317	105.3287	-37.34401	-763.99	80.05869	-53.3748	-788.8659	61.80107	-67.75501	-797.9046	122.9402	-51.55697	-767.6501	89.10286	-74.53766	-783.986	86.70428	-81.11104	-756.5987	132.2572	-70.54129	-764.7972	99.58467	-90.41396	-776.566	94.34989	-93.60936	-749.9995	138.2558	-91.04028	-757.9969	112.2688	-102.021	-772.0553	105.5422	-100.9931	-752.3571	37.68071	-85.75425	-776.6982	46.71529	-80.85933	-809.2359	101.8514	-68.12862	-740.4866	110.8209	-80.78769	-736.2125	118.3033	-89.46201	-737.8055
216	2.986111111	131.2445	-74.21252	-673.2018	95.66941	-67.09382	-709.7402	72.92671	-76.15927	-732.3994	51.83564	-82.81806	-759.1022	103.9835	-41.88493	-765.6868	78.16166	-58.19568	-789.8022	59.64259	-72.59056	-798.2677	121.4125	-56.34549	-769.2485	87.18354	-79.0858	-785.0975	84.8046	-85.48191	-757.6668	130.5325	-75.39245	-766.184	97.57993	-95.03564	-777.5505	92.45568	-97.82735	-750.9168	136.3405	-95.86146	-759.1329	110.1464	-106.7292	-772.8913	103.6129	-105.3358	-753.1507	35.51159	-89.37344	-777.2335	44.28677	-85.75013	-809.1637	100.1936	-72.55331	-741.7413	109.2036	-84.98064	-737.4913	116.7089	-93.7365	-738.955
217	3	130.8917	-80.10444	-676.9707	95.41114	-73.23179	-713.6512	73.06381	-82.37675	-736.6689	52.37011	-89.02702	-763.6831	103.5064	-46.90513	-769.1094	78.19147	-63.55527	-793.5286	60.09886	-78.31463	-802.2835	121.3359	-60.84207	-772.7752	87.83675	-84.1147	-789.3925	85.1937	-91.30242	-762.1828	130.9285	-79.6946	-769.9623	98.59199	-100.0035	-781.913	93.23897	-103.4315	-755.399	137.2172	-100.1239	-763.2148	111.3935	-111.4273	-777.3182	104.6913	-110.5628	-757.6042	36.34078	-95.60439	-782.0677	45.15476	-91.69033	-813.4847	100.0333	-78.40088	-745.723	109.5166	-90.38994	-741.5884	117.4045	-98.87794	-743.1334
218	3.013888889	129.7323	-85.17003	-679.3657	94.41214	-78.68254	-716.2721	72.20002	-87.98218	-739.3587	51.73387	-94.88547	-766.4824	102.7321	-52.87087	-771.9369	77.62443	-69.73386	-796.4239	59.6235	-84.57524	-805.2287	120.6127	-66.79732	-775.387	87.27845	-90.26831	-792.057	84.32677	-97.34249	-764.8492	130.2356	-85.6005	-772.3556	97.99107	-106.133	-784.1722	92.44635	-109.343	-757.6703	136.5385	-105.9528	-765.3921	110.7494	-117.456	-779.3965	103.9578	-116.4473	-759.7201	35.87108	-101.6445	-784.9454	44.79166	-98.03933	-816.4733	98.97345	-84.32913	-748.3046	108.5852	-96.13943	-743.8511	116.5572	-104.6106	-745.2731
219	3.027777778	128.8006	-87.53946	-680.0089	93.58437	-81.28521	-717.0571	71.283	-90.76527	-739.9836	50.68854	-97.86817	-766.9585	102.2138	-56.4253	-773.1043	76.76947	-73.61999	-797.0061	58.60806	-88.52038	-805.3711	119.9855	-70.54749	-776.3129	86.47105	-93.97307	-792.6824	83.19524	-100.838	-765.458	129.4497	-89.38041	-772.9809	97.10944	-109.7789	-784.7679	91.30126	-112.6572	-758.2843	135.575	-109.6757	-765.6999	109.8393	-121.1313	-779.841	102.9037	-119.8376	-760.2315	34.66916	-104.7045	-785.257	43.61192	-102.0868	-816.2695	97.80653	-87.86139	-748.8536	107.4695	-99.41885	-744.5328	115.5367	-107.924	-745.8775
220	3.041666667	128.9867	-89.49617	-681.4671	93.86925	-82.86104	-718.5433	71.71682	-92.13307	-741.6983	51.26883	-98.95077	-768.8574	102.5295	-56.96478	-774.1139	77.19861	-74.03937	-798.2215	59.16615	-88.97915	-806.7921	120.4278	-70.88551	-777.4943	87.15717	-94.2857	-794.3894	83.74517	-101.7452	-767.3386	130.0302	-89.69763	-774.4536	97.92213	-110.1256	-786.8103	91.96992	-113.5525	-760.4241	136.2897	-110.068	-767.5037	110.8052	-121.4379	-782.1596	103.6836	-120.5963	-762.5921	35.34211	-105.5918	-787.3081	44.28954	-102.5015	-817.9069	98.17952	-88.95102	-750.4406	107.9923	-100.4193	-746.4036	116.139	-108.8632	-747.9375
221	3.055555556	129.182	-91.59005	-682.5465	94.10066	-84.63585	-719.5991	71.77816	-93.73462	-742.6594	51.18976	-100.428	-769.7432	103.0215	-59.07834	-775.2846	77.31516	-76.0181	-799.0875	59.05409	-90.80231	-807.4416	120.735	-73.24088	-778.634	87.12972	-96.27676	-795.3665	83.58327	-103.6711	-768.3153	130.0991	-92.16297	-775.5328	97.7327	-112.2056	-787.8468	91.71713	-115.4882	-761.4568	136.1055	-112.5852	-768.5121	110.5709	-123.6398	-783.3214	103.3792	-122.6859	-763.7847	35.12023	-106.9411	-788.1154	43.95409	-104.2057	-818.3979	98.20772	-90.99126	-751.4948	107.9487	-102.4962	-747.5457	115.9757	-111.0868	-749.144
222	3.069444444	129.3367	-93.78994	-683.6811	94.31093	-86.61944	-720.7415	71.87287	-95.6918	-743.6995	51.19164	-102.4116	-770.7062	103.4545	-61.31566	-776.5098	77.40871	-78.11242	-800.0441	58.94334	-92.73422	-808.2333	120.9947	-75.69969	-779.8268	87.07593	-98.39737	-796.3878	83.45229	-105.7099	-769.3247	130.1374	-94.71989	-776.6655	97.57719	-114.3755	-789.0916	91.38209	-117.5771	-762.7331	135.9094	-115.1857	-769.5754	110.3577	-125.9435	-784.5724	103.0794	-124.8927	-765.0728	35.02119	-108.9075	-788.9959	43.64995	-106.0019	-819.0862	98.2914	-93.09727	-752.642	107.739	-104.7564	-748.8101	115.7844	-113.4248	-750.4222
223	3.083333333	129.4191	-96.05438	-684.965	94.34467	-88.38779	-721.8776	71.80203	-97.19115	-744.8384	51.07306	-103.6833	-771.8639	103.488	-62.6514	-777.4501	77.33022	-79.10329	-801.1033	58.76615	-93.5362	-809.4035	120.9249	-77.1212	-780.935	86.77068	-99.51437	-797.4266	83.3061	-106.9563	-770.378	129.9524	-96.22568	-777.9558	97.20444	-115.5952	-790.3376	91.06901	-118.9681	-763.9865	135.611	-116.786	-771.0503	109.8239	-127.2642	-785.8412	102.6916	-126.3368	-766.2811	34.86123	-110.0157	-790.1742	43.38362	-106.6198	-820.3535	98.37732	-94.46031	-753.8159	107.5592	-106.3545	-750.0315	115.5638	-115.0773	-751.6151
224	3.097222222	129.5738	-97.98101	-685.7526	94.38097	-90.33218	-722.5505	71.67422	-99.22466	-745.3144	50.95088	-106.0506	-772.2618	103.4333	-65.01117	-778.3341	77.21617	-81.41759	-801.9531	58.52949	-95.72181	-810.2009	120.7054	-79.67922	-781.8111	86.11574	-102.0247	-797.4371	83.17264	-108.971	-770.1954	129.5605	-98.8498	-778.7409	96.4587	-118.0787	-790.3789	90.52529	-121.1511	-763.9447	135.0557	-119.4134	-771.7144	108.7098	-129.7711	-785.5759	101.9582	-128.6604	-765.8912	34.74822	-112.6129	-790.4991	43.04632	-108.7576	-821.0658	98.7627	-96.15657	-754.3738	107.2656	-108.5514	-750.2781	115.1629	-117.4388	-751.4938
225	3.111111111	129.8157	-102.0723	-687.4782	94.37653	-94.31437	-724.0143	71.30974	-103.0631	-746.4698	50.35916	-109.9871	-773.2157	103.2839	-69.93702	-780.242	76.62661	-86.12987	-803.5131	57.61069	-100.1715	-811.4539	120.2364	-84.97968	-783.6912	85.06653	-106.8863	-798.6289	82.4419	-113.2692	-771.2174	128.7611	-104.2697	-780.4388	95.12926	-123.0818	-791.206	89.48968	-125.6162	-764.651	133.9438	-124.8317	-773.1743	106.9496	-134.9071	-785.9548	100.7185	-133.3711	-766.1272	34.01223	-116.6155	-791.2997	41.79576	-113.0659	-822.005	98.55039	-100.39	-755.9782	106.6399	-113.1103	-751.4131	114.4324	-122.1931	-752.1792
226	3.125	129.9345	-103.6775	-688.4079	94.33313	-95.7447	-724.7506	71.0081	-104.384	-746.9804	49.73772	-111.1879	-773.504	103.1169	-71.77052	-781.1682	76.02653	-87.94519	-803.9465	56.80797	-101.8991	-811.5467	119.9122	-86.98204	-784.6453	84.48458	-108.5751	-799.4292	81.78386	-114.9483	-772.023	128.2838	-106.3313	-781.3481	94.45703	-124.8436	-792.0237	88.84978	-127.281	-765.4526	133.3269	-126.9024	-774.0114	106.1062	-136.8167	-786.4314	100.1653	-135.0534	-766.534	33.10946	-117.6715	-791.3828	40.76833	-114.7417	-821.8181	98.02246	-102.238	-756.7801	106.1653	-114.9027	-752.3103	114.2261	-123.8884	-752.9249
227	3.138888889	130.7463	-105.0604	-689.8099	94.95019	-97.06739	-725.9502	71.57252	-105.693	-748.13	50.16097	-112.3721	-774.5715	103.3573	-72.5992	-782.2099	76.16665	-88.91979	-804.7638	57.00582	-103.0139	-812.2503	120.2618	-87.6458	-785.8706	84.98728	-109.3228	-800.8958	82.22752	-116.1088	-773.5947	128.7992	-106.9539	-782.7626	95.12865	-125.5882	-793.716	89.51297	-128.3867	-767.1824	134.0321	-127.5443	-775.6149	106.7988	-137.5932	-787.899	101.0613	-135.967	-767.9304	33.39972	-118.7412	-792.3669	40.98802	-115.9423	-822.448	98.32831	-103.5094	-758.1155	106.7418	-116.0246	-753.9113	115.2384	-124.7579	-754.4792
228	3.152777778	131.5119	-106.5017	-691.2081	95.53099	-98.42792	-727.1503	72.08967	-106.9832	-749.2902	50.60552	-113.5715	-775.6957	103.5973	-73.5561	-783.2791	76.30579	-89.84485	-805.7339	57.18191	-104.0021	-813.1956	120.5951	-88.45612	-787.104	85.44515	-110.2491	-802.253	82.61801	-117.3711	-775.0446	129.2775	-107.7261	-784.1655	95.70746	-126.4962	-795.1951	90.13651	-129.5923	-768.6852	134.6778	-128.331	-777.1865	107.4839	-138.4804	-789.4757	101.7523	-137.0613	-769.4894	33.798	-119.8855	-793.467	41.1612	-116.9457	-823.3693	98.57427	-104.8814	-759.3284	107.2713	-117.2554	-755.27	115.8473	-125.8617	-755.9444
229	3.166666667	131.728	-107.8273	-692.4288	95.6177	-100.1198	-728.3203	72.14349	-109.015	-750.2906	50.56725	-115.9315	-776.5365	103.4092	-75.44738	-784.577	75.86075	-92.1036	-806.4408	56.72742	-106.4596	-813.4868	120.4667	-90.285	-788.3785	85.40467	-112.2168	-803.5308	82.2017	-119.6043	-776.4349	129.2481	-109.4998	-785.3734	95.80845	-128.3687	-796.6284	90.0156	-131.6037	-770.1825	134.7644	-130.046	-778.3123	107.8336	-140.3212	-791.0671	101.7599	-138.976	-771.1768	33.67961	-122.455	-794.1559	40.64608	-119.5825	-823.33	97.88264	-107.3057	-760.2967	106.9768	-119.2698	-756.5458	115.5882	-127.7229	-757.4031
230	3.180555556	131.4672	-109.0637	-693.5974	95.38776	-101.3281	-729.5109	72.05747	-110.1828	-751.6502	50.7773	-117.1754	-778.1166	103.1332	-76.13951	-785.5477	75.68972	-92.76301	-807.5678	56.6359	-107.1801	-814.7044	120.2777	-90.85536	-789.4312	85.36203	-112.7877	-804.917	82.08413	-120.5224	-777.9272	129.1578	-110.0445	-786.5561	95.77085	-129.0434	-797.7487	90.02544	-132.5502	-771.3274	134.7732	-130.6136	-779.6411	107.9828	-140.9288	-792.6565	101.565	-139.9002	-772.8556	34.13485	-123.7973	-795.9315	40.61897	-120.3367	-824.6071	97.67871	-108.2937	-761.6527	106.9112	-120.2502	-757.5669	115.017	-128.7481	-758.6346
